<svg version="1.1" id="Слой_1" xmlns="http://www.w3.org/2000/svg" xmlns:xlink="http://www.w3.org/1999/xlink" x="0px" y="0px"  viewBox="0 0 48 62" style="enable-background:new 0 0 48 62;" xml:space="preserve"> <style type="text/css"> .st0{fill-rule:evenodd;clip-rule:evenodd;fill:#E83C07;}  .st1{fill-rule:evenodd;clip-rule:evenodd;fill:#FFFFFF;}  </style> <path class="st0" d="M0,24.1c0,8.4,4.4,17.2,11.8,26c2.6,3.1,5.3,5.9,8,8.5c1,0.9,1.8,1.7,2.6,2.4c0.3,0.2,0.5,0.5,0.7,0.6 c0.1,0.1,0.2,0.2,0.3,0.2c0.3,0.3,0.8,0.3,1.2,0c0,0,0.1-0.1,0.3-0.2c0.2-0.2,0.5-0.4,0.7-0.6c0.8-0.7,1.7-1.5,2.6-2.4 c2.7-2.6,5.5-5.4,8-8.5c7.3-8.8,11.8-17.7,11.8-26C48,10.8,37.3,0,24,0S0,10.8,0,24.1z"/> <circle class="st1" cx="24" cy="24" r="12.5"/> </svg>
